{
	"asset":{
		"generator":"Khronos glTF Blender I/O v5.0.21",
		"version":"2.0"
	},
	"scene":0,
	"scenes":[
		{
			"name":"Scene",
			"nodes":[
				0,
				1,
				2,
				3,
				4,
				5,
				6,
				7,
				8,
				9,
				10,
				11,
				12,
				13,
				14,
				15
			]
		}
	],
	"nodes":[
		{
			"mesh":0,
			"name":"Cube"
		},
		{
			"mesh":1,
			"name":"Plane",
			"scale":[
				20.367761611938477,
				20.367761611938477,
				20.367761611938477
			],
			"translation":[
				-15.808685302734375,
				-3.6429941654205322,
				-67.15608978271484
			]
		},
		{
			"mesh":2,
			"name":"Plane.001"
		},
		{
			"mesh":3,
			"name":"rockhigh",
			"rotation":[
				0,
				-0.9417098164558411,
				0,
				0.3364262282848358
			],
			"scale":[
				7.271027088165283,
				7.271027565002441,
				7.271027088165283
			],
			"translation":[
				0,
				25.00299644470215,
				0
			]
		},
		{
			"mesh":4,
			"name":"rocklow"
		},
		{
			"mesh":5,
			"name":"rocklow.001"
		},
		{
			"mesh":6,
			"name":"rocklow.002"
		},
		{
			"mesh":7,
			"name":"rocklow.003"
		},
		{
			"mesh":8,
			"name":"rocklow.004"
		},
		{
			"mesh":9,
			"name":"rocklow.005"
		},
		{
			"mesh":10,
			"name":"rocklow.006"
		},
		{
			"mesh":11,
			"name":"rocklow.008"
		},
		{
			"mesh":12,
			"name":"rocklow.007"
		},
		{
			"mesh":13,
			"name":"rocklow.009"
		},
		{
			"mesh":14,
			"name":"rocklow.010"
		},
		{
			"mesh":15,
			"name":"rocklow.011"
		}
	],
	"materials":[
		{
			"doubleSided": true,
			"extras": {
				"r_albedo": "textures/Ground037_1K-JPG_Color.jpg",
				"g_albedo": "textures/Ground058_1K-JPG_Color.jpg",
				"b_albedo": "textures/Gravel022_1K-JPG_Color.jpg",
				"a_albedo": "textures/Rock030_1K-JPG_Color.jpg",
				"r_normal": "textures/Ground037_1K-JPG_NormalDX.jpg",
				"g_normal": "textures/Ground058_1K-JPG_NormalDX.jpg",
				"b_normal": "textures/Gravel022_1K-JPG_NormalDX.jpg",
				"a_normal": "textures/Rock030_1K-JPG_NormalDX.jpg",
				"mask": "textures/terrain_mask.png",
				"r_tile": 10,
				"g_tile": 10,
				"b_tile": 10,
				"a_tile": 10
			},
			"name": "Material.001",
			"pbrMetallicRoughness": {
				"metallicFactor": 0,
				"roughnessFactor": 0.75
			}
		},
		{
			"alphaMode":"BLEND",
			"doubleSided":true,
			"extras":{
				"cubemap": "sky2.png",
				"water": true
			},
			"name":"Material.002",
			"normalTexture":{
				"index":0
			},
			"pbrMetallicRoughness":{
				"baseColorFactor":[
					1,
					1,
					1,
					1
				],
				"baseColorTexture":{
					"index":1
				},
				"metallicFactor":0,
				"roughnessFactor":0.004000000189989805
			}
		},
		{
			"doubleSided":true,
			"name":"Material.003",
			"normalTexture":{
				"index":2
			},
			"pbrMetallicRoughness":{
				"baseColorTexture":{
					"index":3
				},
				"metallicFactor":0,
				"roughnessFactor":0.863636314868927
			}
		}
	],
	"meshes":[
		{
			"name":"Cube.001",
			"primitives":[
				{
					"attributes":{
						"POSITION":0,
						"NORMAL":1,
						"TEXCOORD_0":2
					},
					"indices":3,
					"material":0
				}
			]
		},
		{
			"name":"Plane",
			"primitives":[
				{
					"attributes":{
						"POSITION":4,
						"NORMAL":5,
						"TEXCOORD_0":6
					},
					"indices":7
				}
			]
		},
		{
			"name":"Plane.001",
			"primitives":[
				{
					"attributes":{
						"POSITION":8,
						"NORMAL":9,
						"TEXCOORD_0":10
					},
					"indices":7,
					"material":1
				}
			]
		},
		{
			"name":"Cube.003",
			"primitives":[
				{
					"attributes":{
						"POSITION":11,
						"NORMAL":12,
						"TEXCOORD_0":13
					},
					"indices":14,
					"material":2
				}
			]
		},
		{
			"name":"Cube.005",
			"primitives":[
				{
					"attributes":{
						"POSITION":15,
						"NORMAL":16,
						"TEXCOORD_0":17
					},
					"indices":18,
					"material":2
				}
			]
		},
		{
			"name":"Cube.006",
			"primitives":[
				{
					"attributes":{
						"POSITION":19,
						"NORMAL":20,
						"TEXCOORD_0":21
					},
					"indices":18,
					"material":2
				}
			]
		},
		{
			"name":"Cube.007",
			"primitives":[
				{
					"attributes":{
						"POSITION":22,
						"NORMAL":23,
						"TEXCOORD_0":24
					},
					"indices":18,
					"material":2
				}
			]
		},
		{
			"name":"Cube.008",
			"primitives":[
				{
					"attributes":{
						"POSITION":25,
						"NORMAL":26,
						"TEXCOORD_0":27
					},
					"indices":18,
					"material":2
				}
			]
		},
		{
			"name":"Cube.009",
			"primitives":[
				{
					"attributes":{
						"POSITION":28,
						"NORMAL":29,
						"TEXCOORD_0":30
					},
					"indices":18,
					"material":2
				}
			]
		},
		{
			"name":"Cube.010",
			"primitives":[
				{
					"attributes":{
						"POSITION":31,
						"NORMAL":32,
						"TEXCOORD_0":33
					},
					"indices":18,
					"material":2
				}
			]
		},
		{
			"name":"Cube.011",
			"primitives":[
				{
					"attributes":{
						"POSITION":34,
						"NORMAL":35,
						"TEXCOORD_0":36
					},
					"indices":18,
					"material":2
				}
			]
		},
		{
			"name":"Cube.013",
			"primitives":[
				{
					"attributes":{
						"POSITION":37,
						"NORMAL":38,
						"TEXCOORD_0":39
					},
					"indices":18,
					"material":2
				}
			]
		},
		{
			"name":"Cube.014",
			"primitives":[
				{
					"attributes":{
						"POSITION":40,
						"NORMAL":41,
						"TEXCOORD_0":42
					},
					"indices":18,
					"material":2
				}
			]
		},
		{
			"name":"Cube.015",
			"primitives":[
				{
					"attributes":{
						"POSITION":43,
						"NORMAL":44,
						"TEXCOORD_0":45
					},
					"indices":18,
					"material":2
				}
			]
		},
		{
			"name":"Cube.016",
			"primitives":[
				{
					"attributes":{
						"POSITION":46,
						"NORMAL":47,
						"TEXCOORD_0":48
					},
					"indices":18,
					"material":2
				}
			]
		},
		{
			"name":"Cube.017",
			"primitives":[
				{
					"attributes":{
						"POSITION":49,
						"NORMAL":50,
						"TEXCOORD_0":51
					},
					"indices":18,
					"material":2
				}
			]
		}
	],
	"textures":[
		{
			"sampler":0,
			"source":0
		},
		{
			"sampler":0,
			"source":1
		},
		{
			"sampler":0,
			"source":2
		},
		{
			"sampler":0,
			"source":3
		}
	],
	"images":[
		{
			"mimeType":"image/png",
			"name":"water_normal",
			"uri":"textures/water_normal.png"
		},
		{
			"mimeType":"image/png",
			"name":"water_color",
			"uri":"textures/water_color.png"
		},
		{
			"mimeType":"image/png",
			"name":"rock1normal",
			"uri":"textures/rock1normal.png"
		},
		{
			"mimeType":"image/jpeg",
			"name":"Ground058_1K-JPG_Color",
			"uri":"textures/rock1color.png"
		}
	],
	"accessors":[
		{
			"bufferView":0,
			"componentType":5126,
			"count":492,
			"max":[
				79.82810974121094,
				35.157894134521484,
				90.46138000488281
			],
			"min":[
				-90.09681701660156,
				-5.126728057861328,
				-81.6949462890625
			],
			"type":"VEC3"
		},
		{
			"bufferView":1,
			"componentType":5126,
			"count":492,
			"type":"VEC3"
		},
		{
			"bufferView":2,
			"componentType":5126,
			"count":492,
			"type":"VEC2"
		},
		{
			"bufferView":3,
			"componentType":5123,
			"count":2724,
			"type":"SCALAR"
		},
		{
			"bufferView":4,
			"componentType":5126,
			"count":4,
			"max":[
				1,
				0,
				1
			],
			"min":[
				-1,
				0,
				-1
			],
			"type":"VEC3"
		},
		{
			"bufferView":5,
			"componentType":5126,
			"count":4,
			"type":"VEC3"
		},
		{
			"bufferView":6,
			"componentType":5126,
			"count":4,
			"type":"VEC2"
		},
		{
			"bufferView":7,
			"componentType":5123,
			"count":6,
			"type":"SCALAR"
		},
		{
			"bufferView":8,
			"componentType":5126,
			"count":4,
			"max":[
				6.333667755126953,
				-3.6571013927459717,
				-42.87105178833008
			],
			"min":[
				-36.04640579223633,
				-3.6571013927459717,
				-85.25112915039062
			],
			"type":"VEC3"
		},
		{
			"bufferView":9,
			"componentType":5126,
			"count":4,
			"type":"VEC3"
		},
		{
			"bufferView":10,
			"componentType":5126,
			"count":4,
			"type":"VEC2"
		},
		{
			"bufferView":11,
			"componentType":5126,
			"count":25025,
			"max":[
				1.3929890394210815,
				1.1511151790618896,
				1.2666715383529663
			],
			"min":[
				-1.5871635675430298,
				-1.1416267156600952,
				-1.3010656833648682
			],
			"type":"VEC3"
		},
		{
			"bufferView":12,
			"componentType":5126,
			"count":25025,
			"type":"VEC3"
		},
		{
			"bufferView":13,
			"componentType":5126,
			"count":25025,
			"type":"VEC2"
		},
		{
			"bufferView":14,
			"componentType":5123,
			"count":147456,
			"type":"SCALAR"
		},
		{
			"bufferView":15,
			"componentType":5126,
			"count":242,
			"max":[
				11.487663269042969,
				11.70942497253418,
				14.763568878173828
			],
			"min":[
				0.16939640045166016,
				2.157437324523926,
				2.494389533996582
			],
			"type":"VEC3"
		},
		{
			"bufferView":16,
			"componentType":5126,
			"count":242,
			"type":"VEC3"
		},
		{
			"bufferView":17,
			"componentType":5126,
			"count":242,
			"type":"VEC2"
		},
		{
			"bufferView":18,
			"componentType":5123,
			"count":1176,
			"type":"SCALAR"
		},
		{
			"bufferView":19,
			"componentType":5126,
			"count":242,
			"max":[
				9.901910781860352,
				11.349311828613281,
				23.568819046020508
			],
			"min":[
				-1.4163570404052734,
				1.7973246574401855,
				11.299638748168945
			],
			"type":"VEC3"
		},
		{
			"bufferView":20,
			"componentType":5126,
			"count":242,
			"type":"VEC3"
		},
		{
			"bufferView":21,
			"componentType":5126,
			"count":242,
			"type":"VEC2"
		},
		{
			"bufferView":22,
			"componentType":5126,
			"count":242,
			"max":[
				2.3284571170806885,
				11.11851692199707,
				15.572378158569336
			],
			"min":[
				-7.55538272857666,
				0.3305082321166992,
				4.105641841888428
			],
			"type":"VEC3"
		},
		{
			"bufferView":23,
			"componentType":5126,
			"count":242,
			"type":"VEC3"
		},
		{
			"bufferView":24,
			"componentType":5126,
			"count":242,
			"type":"VEC2"
		},
		{
			"bufferView":25,
			"componentType":5126,
			"count":242,
			"max":[
				47.181358337402344,
				1.8808802366256714,
				-16.788921356201172
			],
			"min":[
				41.12868118286133,
				-3.0416111946105957,
				-26.070526123046875
			],
			"type":"VEC3"
		},
		{
			"bufferView":26,
			"componentType":5126,
			"count":242,
			"type":"VEC3"
		},
		{
			"bufferView":27,
			"componentType":5126,
			"count":242,
			"type":"VEC2"
		},
		{
			"bufferView":28,
			"componentType":5126,
			"count":242,
			"max":[
				37.08509063720703,
				4.204868793487549,
				-43.58192443847656
			],
			"min":[
				27.99532699584961,
				-3.2168829441070557,
				-52.326499938964844
			],
			"type":"VEC3"
		},
		{
			"bufferView":29,
			"componentType":5126,
			"count":242,
			"type":"VEC3"
		},
		{
			"bufferView":30,
			"componentType":5126,
			"count":242,
			"type":"VEC2"
		},
		{
			"bufferView":31,
			"componentType":5126,
			"count":242,
			"max":[
				38.24467849731445,
				1.9935284852981567,
				-39.066490173339844
			],
			"min":[
				31.689476013183594,
				-3.1463913917541504,
				-45.11425018310547
			],
			"type":"VEC3"
		},
		{
			"bufferView":32,
			"componentType":5126,
			"count":242,
			"type":"VEC3"
		},
		{
			"bufferView":33,
			"componentType":5126,
			"count":242,
			"type":"VEC2"
		},
		{
			"bufferView":34,
			"componentType":5126,
			"count":242,
			"max":[
				-55.8155517578125,
				13.436378479003906,
				-40.29793930053711
			],
			"min":[
				-73.57522583007812,
				-1.9985733032226562,
				-60.3830451965332
			],
			"type":"VEC3"
		},
		{
			"bufferView":35,
			"componentType":5126,
			"count":242,
			"type":"VEC3"
		},
		{
			"bufferView":36,
			"componentType":5126,
			"count":242,
			"type":"VEC2"
		},
		{
			"bufferView":37,
			"componentType":5126,
			"count":242,
			"max":[
				-26.497238159179688,
				8.671751022338867,
				-63.311344146728516
			],
			"min":[
				-46.559669494628906,
				-7.49482536315918,
				-82.26311492919922
			],
			"type":"VEC3"
		},
		{
			"bufferView":38,
			"componentType":5126,
			"count":242,
			"type":"VEC3"
		},
		{
			"bufferView":39,
			"componentType":5126,
			"count":242,
			"type":"VEC2"
		},
		{
			"bufferView":40,
			"componentType":5126,
			"count":242,
			"max":[
				-48.81311798095703,
				7.285658359527588,
				38.096641540527344
			],
			"min":[
				-55.21536636352539,
				0.12294387817382812,
				29.804847717285156
			],
			"type":"VEC3"
		},
		{
			"bufferView":41,
			"componentType":5126,
			"count":242,
			"type":"VEC3"
		},
		{
			"bufferView":42,
			"componentType":5126,
			"count":242,
			"type":"VEC2"
		},
		{
			"bufferView":43,
			"componentType":5126,
			"count":242,
			"max":[
				-44.743377685546875,
				5.205583095550537,
				37.16264724731445
			],
			"min":[
				-49.84172439575195,
				0.7295241355895996,
				31.281591415405273
			],
			"type":"VEC3"
		},
		{
			"bufferView":44,
			"componentType":5126,
			"count":242,
			"type":"VEC3"
		},
		{
			"bufferView":45,
			"componentType":5126,
			"count":242,
			"type":"VEC2"
		},
		{
			"bufferView":46,
			"componentType":5126,
			"count":242,
			"max":[
				-41.25978469848633,
				5.115372180938721,
				23.736690521240234
			],
			"min":[
				-48.08594512939453,
				-0.17457318305969238,
				17.462646484375
			],
			"type":"VEC3"
		},
		{
			"bufferView":47,
			"componentType":5126,
			"count":242,
			"type":"VEC3"
		},
		{
			"bufferView":48,
			"componentType":5126,
			"count":242,
			"type":"VEC2"
		},
		{
			"bufferView":49,
			"componentType":5126,
			"count":242,
			"max":[
				-43.63019943237305,
				4.689671516418457,
				27.348590850830078
			],
			"min":[
				-50.22184753417969,
				-1.575530767440796,
				21.899738311767578
			],
			"type":"VEC3"
		},
		{
			"bufferView":50,
			"componentType":5126,
			"count":242,
			"type":"VEC3"
		},
		{
			"bufferView":51,
			"componentType":5126,
			"count":242,
			"type":"VEC2"
		}
	],
	"bufferViews":[
		{
			"buffer":0,
			"byteLength":5904,
			"byteOffset":0,
			"target":34962
		},
		{
			"buffer":0,
			"byteLength":5904,
			"byteOffset":5904,
			"target":34962
		},
		{
			"buffer":0,
			"byteLength":3936,
			"byteOffset":11808,
			"target":34962
		},
		{
			"buffer":0,
			"byteLength":5448,
			"byteOffset":15744,
			"target":34963
		},
		{
			"buffer":0,
			"byteLength":48,
			"byteOffset":21192,
			"target":34962
		},
		{
			"buffer":0,
			"byteLength":48,
			"byteOffset":21240,
			"target":34962
		},
		{
			"buffer":0,
			"byteLength":32,
			"byteOffset":21288,
			"target":34962
		},
		{
			"buffer":0,
			"byteLength":12,
			"byteOffset":21320,
			"target":34963
		},
		{
			"buffer":0,
			"byteLength":48,
			"byteOffset":21332,
			"target":34962
		},
		{
			"buffer":0,
			"byteLength":48,
			"byteOffset":21380,
			"target":34962
		},
		{
			"buffer":0,
			"byteLength":32,
			"byteOffset":21428,
			"target":34962
		},
		{
			"buffer":0,
			"byteLength":300300,
			"byteOffset":21460,
			"target":34962
		},
		{
			"buffer":0,
			"byteLength":300300,
			"byteOffset":321760,
			"target":34962
		},
		{
			"buffer":0,
			"byteLength":200200,
			"byteOffset":622060,
			"target":34962
		},
		{
			"buffer":0,
			"byteLength":294912,
			"byteOffset":822260,
			"target":34963
		},
		{
			"buffer":0,
			"byteLength":2904,
			"byteOffset":1117172,
			"target":34962
		},
		{
			"buffer":0,
			"byteLength":2904,
			"byteOffset":1120076,
			"target":34962
		},
		{
			"buffer":0,
			"byteLength":1936,
			"byteOffset":1122980,
			"target":34962
		},
		{
			"buffer":0,
			"byteLength":2352,
			"byteOffset":1124916,
			"target":34963
		},
		{
			"buffer":0,
			"byteLength":2904,
			"byteOffset":1127268,
			"target":34962
		},
		{
			"buffer":0,
			"byteLength":2904,
			"byteOffset":1130172,
			"target":34962
		},
		{
			"buffer":0,
			"byteLength":1936,
			"byteOffset":1133076,
			"target":34962
		},
		{
			"buffer":0,
			"byteLength":2904,
			"byteOffset":1135012,
			"target":34962
		},
		{
			"buffer":0,
			"byteLength":2904,
			"byteOffset":1137916,
			"target":34962
		},
		{
			"buffer":0,
			"byteLength":1936,
			"byteOffset":1140820,
			"target":34962
		},
		{
			"buffer":0,
			"byteLength":2904,
			"byteOffset":1142756,
			"target":34962
		},
		{
			"buffer":0,
			"byteLength":2904,
			"byteOffset":1145660,
			"target":34962
		},
		{
			"buffer":0,
			"byteLength":1936,
			"byteOffset":1148564,
			"target":34962
		},
		{
			"buffer":0,
			"byteLength":2904,
			"byteOffset":1150500,
			"target":34962
		},
		{
			"buffer":0,
			"byteLength":2904,
			"byteOffset":1153404,
			"target":34962
		},
		{
			"buffer":0,
			"byteLength":1936,
			"byteOffset":1156308,
			"target":34962
		},
		{
			"buffer":0,
			"byteLength":2904,
			"byteOffset":1158244,
			"target":34962
		},
		{
			"buffer":0,
			"byteLength":2904,
			"byteOffset":1161148,
			"target":34962
		},
		{
			"buffer":0,
			"byteLength":1936,
			"byteOffset":1164052,
			"target":34962
		},
		{
			"buffer":0,
			"byteLength":2904,
			"byteOffset":1165988,
			"target":34962
		},
		{
			"buffer":0,
			"byteLength":2904,
			"byteOffset":1168892,
			"target":34962
		},
		{
			"buffer":0,
			"byteLength":1936,
			"byteOffset":1171796,
			"target":34962
		},
		{
			"buffer":0,
			"byteLength":2904,
			"byteOffset":1173732,
			"target":34962
		},
		{
			"buffer":0,
			"byteLength":2904,
			"byteOffset":1176636,
			"target":34962
		},
		{
			"buffer":0,
			"byteLength":1936,
			"byteOffset":1179540,
			"target":34962
		},
		{
			"buffer":0,
			"byteLength":2904,
			"byteOffset":1181476,
			"target":34962
		},
		{
			"buffer":0,
			"byteLength":2904,
			"byteOffset":1184380,
			"target":34962
		},
		{
			"buffer":0,
			"byteLength":1936,
			"byteOffset":1187284,
			"target":34962
		},
		{
			"buffer":0,
			"byteLength":2904,
			"byteOffset":1189220,
			"target":34962
		},
		{
			"buffer":0,
			"byteLength":2904,
			"byteOffset":1192124,
			"target":34962
		},
		{
			"buffer":0,
			"byteLength":1936,
			"byteOffset":1195028,
			"target":34962
		},
		{
			"buffer":0,
			"byteLength":2904,
			"byteOffset":1196964,
			"target":34962
		},
		{
			"buffer":0,
			"byteLength":2904,
			"byteOffset":1199868,
			"target":34962
		},
		{
			"buffer":0,
			"byteLength":1936,
			"byteOffset":1202772,
			"target":34962
		},
		{
			"buffer":0,
			"byteLength":2904,
			"byteOffset":1204708,
			"target":34962
		},
		{
			"buffer":0,
			"byteLength":2904,
			"byteOffset":1207612,
			"target":34962
		},
		{
			"buffer":0,
			"byteLength":1936,
			"byteOffset":1210516,
			"target":34962
		}
	],
	"samplers":[
		{
			"magFilter":9729,
			"minFilter":9987
		}
	],
	"buffers":[
		{
			"byteLength":1212452,
			"uri":"scene2.bin"
		}
	]
}
